<svg width="42" height="28" viewBox="0 0 42 28" xmlns="http://www.w3.org/2000/svg"><title>logo-ad-mobile</title><g fill-rule="evenodd"><path d="M0 27.476h4.484v-.201H2.41c.167-.435 3.112-8.618 3.112-8.618h8.517s2.912 8.1 3.096 8.618h-2.778v.2h7.43L11.996.034 2.193 27.275H0v.2zm5.572-9.02l4.2-11.662 4.2 11.663h-8.4z"/><path d="M21.77 27.476h6.526c7.53 0 13.62-4.451 13.62-13.47 0-8.902-5.823-13.52-13.704-13.52h-9.22v.2h2.778v26.79zm4.3-.184V.702h1.673c1.975 0 3.615.118 4.836.704 3.313 1.572 4.451 5.639 4.451 12.6 0 6.61-1.656 10.525-4.367 12.298-1.255.787-2.995.988-4.535.988H26.07z"/></g></svg>