<svg id="Laag_1" data-name="Laag 1" xmlns="http://www.w3.org/2000/svg" viewBox="0 0 200 200"><defs><style>.cls-1{fill:#010101;}</style></defs><title>Tekengebied 1@31x</title><path class="cls-1" d="M100,29.35c-19.19,0-21.59.09-29.12.43a51.93,51.93,0,0,0-17.15,3.28A36.11,36.11,0,0,0,33.06,53.73a51.93,51.93,0,0,0-3.28,17.15c-.35,7.53-.43,9.93-.43,29.12s.09,21.59.43,29.12a52,52,0,0,0,3.28,17.15,36.11,36.11,0,0,0,20.67,20.67,52.3,52.3,0,0,0,17.15,3.28c7.53.35,9.93.43,29.12.43s21.59-.09,29.12-.43a52.25,52.25,0,0,0,17.15-3.28,36.11,36.11,0,0,0,20.67-20.67,52.25,52.25,0,0,0,3.28-17.15c.35-7.53.43-9.93.43-29.12s-.09-21.59-.43-29.12a52.19,52.19,0,0,0-3.28-17.15,36.11,36.11,0,0,0-20.67-20.67,52,52,0,0,0-17.15-3.28C121.59,29.43,119.19,29.35,100,29.35Zm0,12.72c18.86,0,21.11.09,28.55.42,6.89.32,10.63,1.46,13.11,2.44a22,22,0,0,1,8.14,5.28,21.65,21.65,0,0,1,5.27,8.13c1,2.48,2.12,6.22,2.44,13.11.33,7.45.41,9.69.41,28.55s-.09,21.11-.44,28.55c-.36,6.89-1.51,10.63-2.48,13.11a22.53,22.53,0,0,1-5.29,8.14,21.93,21.93,0,0,1-8.12,5.27c-2.48,1-6.27,2.12-13.16,2.44-7.5.33-9.71.41-28.61.41s-21.11-.09-28.6-.44c-6.9-.36-10.69-1.51-13.17-2.48a21.83,21.83,0,0,1-8.11-5.29,21.4,21.4,0,0,1-5.3-8.12c-1-2.48-2.12-6.27-2.48-13.16-.26-7.42-.35-9.71-.35-28.52s.09-21.11.35-28.62c.36-6.88,1.51-10.67,2.48-13.15A20.91,20.91,0,0,1,49.94,50a20.87,20.87,0,0,1,8.11-5.28c2.48-1,6.19-2.13,13.08-2.48,7.51-.27,9.71-.36,28.61-.36Zm0,21.65A36.28,36.28,0,1,0,136.28,100,36.28,36.28,0,0,0,100,63.72Zm0,59.83A23.55,23.55,0,1,1,123.55,100,23.55,23.55,0,0,1,100,123.55Zm46.19-61.26a8.48,8.48,0,1,1-8.48-8.47A8.48,8.48,0,0,1,146.19,62.29Z"/></svg>