<svg id="Laag_1" data-name="Laag 1" xmlns="http://www.w3.org/2000/svg" viewBox="0 0 200 200"><defs><style>.cls-1{fill:#010101;}</style></defs><title>Tekengebied 1 kopie 2@31x</title><path id="P" class="cls-1" d="M105.11,34.81c-37.3,0-59.23,27.82-59.23,50.12,0,13.51,9.11,27.34,13.67,27.34s9.11,0,9.11-4.55-9.11-9.12-9.11-22.79c0-19.83,21.75-36.45,45.56-36.45,21.09,0,31.9,14.69,31.9,31.9,0,22.63-12.46,41-27.34,41-8.22,0-15.64-5.34-13.67-13.67,2.36-10,4.56-9.12,9.11-27.34,1.56-6.24-2-13.67-9.11-13.67-8.4,0-18.23,6.59-18.23,18.22,0,7.42,4.56,13.67,4.56,13.67S72.1,134.43,70.59,140.81c-3,12.7-6.77,30.7-2.21,30.7s9.39-9.11,18.51-31.9c1.34-3.36,4.55-13.67,4.55-13.67,2.73,5.21,14.31,9.12,22.79,9.12,25.24,0,41-23.88,41-54.68C155.24,57.08,135.1,34.81,105.11,34.81Z"/></svg>