<svg id="Laag_1" data-name="Laag 1" xmlns="http://www.w3.org/2000/svg" viewBox="0 0 200 200"><defs><style>.cls-1{fill:#010101;}</style></defs><title>Tekengebied 1 kopie 3@31x</title><path class="cls-1" d="M171.78,59.49a53,53,0,0,1-15.35,4.21,26.76,26.76,0,0,0,11.75-14.79,53.55,53.55,0,0,1-17,6.49A26.74,26.74,0,0,0,105,73.69a27.2,27.2,0,0,0,.69,6.09A75.91,75.91,0,0,1,50.57,51.85a26.76,26.76,0,0,0,8.27,35.69,26.71,26.71,0,0,1-12.11-3.35v.34a26.75,26.75,0,0,0,21.44,26.21,26.76,26.76,0,0,1-7,.94,26.08,26.08,0,0,1-5-.49,26.76,26.76,0,0,0,25,18.57A53.85,53.85,0,0,1,41.5,140.82a75.61,75.61,0,0,0,41,12c49.17,0,76.05-40.72,76.05-76.05,0-1.15,0-2.31-.07-3.46A54.11,54.11,0,0,0,171.78,59.49Z"/></svg>