<?xml version="1.0" encoding="utf-8"?>
<!-- Generator: Adobe Illustrator 23.0.6, SVG Export Plug-In . SVG Version: 6.00 Build 0)  -->
<svg version="1.1" id="Laag_1" xmlns="http://www.w3.org/2000/svg" xmlns:xlink="http://www.w3.org/1999/xlink" x="0px" y="0px"
	 viewBox="0 0 200 200" style="enable-background:new 0 0 200 200;" xml:space="preserve">
<style type="text/css">
	.st0{fill:#FFFFFF;}
</style>
<title>Tekengebied 1 kopie 4@31x</title>
<path class="st0" d="M181,171.2l-41-40.8c9.3-11.4,14.4-25.6,14.4-40.3v-0.4c-0.2-35.2-28.9-63.5-64-63.3s-63.5,28.9-63.3,64
	c0.2,35.2,28.9,63.5,64,63.3c14.7-0.1,28.9-5.3,40.3-14.7l41,40.7L181,171.2z M90.4,141.6c-28.4-0.2-51.3-23.3-51.1-51.7
	C39.4,61.5,62.6,38.6,91,38.7c28.3,0.2,51.1,23.2,51.1,51.4v0.3C141.9,118.9,118.8,141.8,90.4,141.6
	C90.4,141.6,90.4,141.6,90.4,141.6z"/>
</svg>
